<mxfile host="app.diagrams.net" modified="2024-06-14T16:06:45.811Z" agent="Mozilla/5.0 (Windows NT 10.0; Win64; x64) AppleWebKit/537.36 (KHTML, like Gecko) Chrome/125.0.0.0 Safari/537.36" etag="QhxT30Z2b1uOjuv8moH-" version="24.5.4" type="device">
  <diagram name="PÃ¡gina-1" id="6N4ghU3XD4_eBbLX5zBG">
    <mxGraphModel dx="1834" dy="796" grid="0" gridSize="10" guides="1" tooltips="1" connect="1" arrows="1" fold="1" page="0" pageScale="1" pageWidth="827" pageHeight="1169" math="0" shadow="0">
      <root>
        <mxCell id="0" />
        <mxCell id="1" parent="0" />
        <mxCell id="cBBn105AXEk_PVuYCyfV-1" value="&lt;font style=&quot;font-size: 14px;&quot;&gt;Absolute Value&lt;/font&gt;" style="rounded=0;whiteSpace=wrap;html=1;" vertex="1" parent="1">
          <mxGeometry x="-91" y="38" width="457" height="46" as="geometry" />
        </mxCell>
        <mxCell id="cBBn105AXEk_PVuYCyfV-2" value="&lt;span style=&quot;font-size: 14px;&quot;&gt;Comparator 1&lt;/span&gt;" style="rounded=0;whiteSpace=wrap;html=1;" vertex="1" parent="1">
          <mxGeometry x="-91" y="94" width="258" height="46" as="geometry" />
        </mxCell>
        <mxCell id="cBBn105AXEk_PVuYCyfV-3" value="&lt;span style=&quot;font-size: 14px;&quot;&gt;Comparator 2&lt;/span&gt;" style="rounded=0;whiteSpace=wrap;html=1;" vertex="1" parent="1">
          <mxGeometry x="167" y="94" width="258" height="46" as="geometry" />
        </mxCell>
        <mxCell id="cBBn105AXEk_PVuYCyfV-5" value="" style="rounded=0;whiteSpace=wrap;html=1;fillColor=#d5e8d4;strokeColor=#82b366;" vertex="1" parent="1">
          <mxGeometry x="-91" y="28" width="516" height="10" as="geometry" />
        </mxCell>
        <mxCell id="cBBn105AXEk_PVuYCyfV-6" value="" style="rounded=0;whiteSpace=wrap;html=1;fillColor=#f8cecc;strokeColor=#b85450;" vertex="1" parent="1">
          <mxGeometry x="-91" y="84" width="516" height="10" as="geometry" />
        </mxCell>
        <mxCell id="cBBn105AXEk_PVuYCyfV-7" value="" style="rounded=0;whiteSpace=wrap;html=1;fillColor=#d5e8d4;strokeColor=#82b366;" vertex="1" parent="1">
          <mxGeometry x="-91" y="140" width="516" height="10" as="geometry" />
        </mxCell>
        <mxCell id="cBBn105AXEk_PVuYCyfV-9" value="&lt;font style=&quot;font-size: 14px;&quot;&gt;Counter Cells I&lt;/font&gt;" style="rounded=0;whiteSpace=wrap;html=1;" vertex="1" parent="1">
          <mxGeometry x="-91" y="150" width="446" height="46" as="geometry" />
        </mxCell>
        <mxCell id="cBBn105AXEk_PVuYCyfV-10" value="" style="rounded=0;whiteSpace=wrap;html=1;fillColor=#f8cecc;strokeColor=#b85450;" vertex="1" parent="1">
          <mxGeometry x="-91" y="196" width="516" height="10" as="geometry" />
        </mxCell>
        <mxCell id="cBBn105AXEk_PVuYCyfV-11" value="" style="rounded=0;whiteSpace=wrap;html=1;fillColor=#d5e8d4;strokeColor=#82b366;" vertex="1" parent="1">
          <mxGeometry x="-91" y="252" width="516" height="10" as="geometry" />
        </mxCell>
        <mxCell id="cBBn105AXEk_PVuYCyfV-12" value="&lt;font style=&quot;font-size: 14px;&quot;&gt;Counter Cells II&lt;/font&gt;" style="rounded=0;whiteSpace=wrap;html=1;" vertex="1" parent="1">
          <mxGeometry x="-91" y="206" width="516" height="46" as="geometry" />
        </mxCell>
        <mxCell id="cBBn105AXEk_PVuYCyfV-13" value="&lt;font style=&quot;font-size: 14px;&quot;&gt;Extra logic&lt;/font&gt;" style="rounded=0;whiteSpace=wrap;html=1;" vertex="1" parent="1">
          <mxGeometry x="355" y="150" width="70" height="46" as="geometry" />
        </mxCell>
        <mxCell id="cBBn105AXEk_PVuYCyfV-14" value="" style="rounded=0;whiteSpace=wrap;html=1;fillColor=#d5e8d4;strokeColor=#82b366;" vertex="1" parent="1">
          <mxGeometry x="-91" y="286" width="29" height="10" as="geometry" />
        </mxCell>
        <mxCell id="cBBn105AXEk_PVuYCyfV-15" value="&lt;font style=&quot;font-size: 14px;&quot;&gt;VDD&lt;/font&gt;" style="text;html=1;align=center;verticalAlign=middle;whiteSpace=wrap;rounded=0;" vertex="1" parent="1">
          <mxGeometry x="-62" y="276" width="60" height="30" as="geometry" />
        </mxCell>
        <mxCell id="cBBn105AXEk_PVuYCyfV-16" value="" style="rounded=0;whiteSpace=wrap;html=1;fillColor=#f8cecc;strokeColor=#b85450;" vertex="1" parent="1">
          <mxGeometry x="-91" y="313" width="29" height="10" as="geometry" />
        </mxCell>
        <mxCell id="cBBn105AXEk_PVuYCyfV-17" value="&lt;font style=&quot;font-size: 14px;&quot;&gt;VSS&lt;/font&gt;" style="text;html=1;align=center;verticalAlign=middle;whiteSpace=wrap;rounded=0;" vertex="1" parent="1">
          <mxGeometry x="-62" y="303" width="60" height="30" as="geometry" />
        </mxCell>
      </root>
    </mxGraphModel>
  </diagram>
</mxfile>
